<svg width="180" height="52" viewBox="0 0 180 52" fill="none" xmlns="http://www.w3.org/2000/svg">

<path d="M12.4268 9.15332H16.2476L10.1807 27H6.05469L0 9.15332H3.8208L7.17773 19.7734C7.36491 20.4001 7.55615 21.1325 7.75146 21.9707C7.95492 22.8008 8.08105 23.3786 8.12988 23.7041C8.2194 22.9554 8.52458 21.6452 9.04541 19.7734L12.4268 9.15332ZM18.0542 9.82471C18.0542 8.61214 18.7297 8.00586 20.0806 8.00586C21.4315 8.00586 22.1069 8.61214 22.1069 9.82471C22.1069 10.4025 21.936 10.8542 21.5942 11.1797C21.2606 11.4971 20.756 11.6558 20.0806 11.6558C18.7297 11.6558 18.0542 11.0454 18.0542 9.82471ZM21.936 27H18.2129V13.3525H21.936V27ZM35.376 22.9473C35.376 24.347 34.8877 25.4131 33.9111 26.1455C32.9427 26.8779 31.4901 27.2441 29.5532 27.2441C28.5604 27.2441 27.714 27.175 27.0142 27.0366C26.3143 26.9064 25.6592 26.7111 25.0488 26.4507V23.3745C25.7406 23.7 26.5177 23.9727 27.3804 24.1924C28.2511 24.4121 29.0161 24.522 29.6753 24.522C31.0262 24.522 31.7017 24.1313 31.7017 23.3501C31.7017 23.0571 31.6121 22.8211 31.4331 22.6421C31.2541 22.4549 30.9448 22.2474 30.5054 22.0195C30.0659 21.7835 29.48 21.5109 28.7476 21.2017C27.6978 20.7622 26.9246 20.3553 26.4282 19.981C25.9399 19.6066 25.5819 19.1794 25.354 18.6992C25.1343 18.2109 25.0244 17.6128 25.0244 16.9048C25.0244 15.6922 25.4924 14.7563 26.4282 14.0972C27.3722 13.4299 28.7069 13.0962 30.4321 13.0962C32.076 13.0962 33.6751 13.4543 35.2295 14.1704L34.1064 16.856C33.4229 16.563 32.784 16.3229 32.1899 16.1357C31.5959 15.9486 30.9896 15.855 30.3711 15.855C29.2725 15.855 28.7231 16.152 28.7231 16.7461C28.7231 17.0798 28.8981 17.3687 29.248 17.6128C29.6061 17.8569 30.3833 18.2191 31.5796 18.6992C32.6457 19.1305 33.4269 19.5334 33.9233 19.9077C34.4198 20.2821 34.786 20.7134 35.022 21.2017C35.258 21.6899 35.376 22.2718 35.376 22.9473ZM46.9482 27L46.228 25.1445H46.1304C45.5037 25.9339 44.8568 26.4832 44.1895 26.7925C43.5303 27.0936 42.6676 27.2441 41.6016 27.2441C40.2913 27.2441 39.2578 26.8698 38.501 26.1211C37.7523 25.3724 37.3779 24.3063 37.3779 22.9229C37.3779 21.4743 37.8825 20.4082 38.8916 19.7246C39.9089 19.0329 41.4388 18.6504 43.4814 18.5771L45.8496 18.5039V17.9058C45.8496 16.5223 45.1416 15.8306 43.7256 15.8306C42.6351 15.8306 41.3534 16.1602 39.8804 16.8193L38.6475 14.3047C40.2181 13.4827 41.9596 13.0718 43.8721 13.0718C45.7031 13.0718 47.1069 13.4705 48.0835 14.2681C49.0601 15.0656 49.5483 16.2782 49.5483 17.9058V27H46.9482ZM45.8496 20.6768L44.4092 20.7256C43.3268 20.7581 42.5212 20.9535 41.9922 21.3115C41.4632 21.6696 41.1987 22.2148 41.1987 22.9473C41.1987 23.9971 41.8009 24.522 43.0054 24.522C43.868 24.522 44.5557 24.2738 45.0684 23.7773C45.5892 23.2809 45.8496 22.6217 45.8496 21.7998V20.6768Z" fill="#ED3A69"/>
<path d="M64.6118 27L63.3179 22.752H56.8115L55.5176 27H51.4404L57.7393 9.08008H62.3657L68.689 27H64.6118ZM62.4146 19.5781C61.2183 15.7288 60.5428 13.5519 60.3882 13.0474C60.2417 12.5428 60.1359 12.144 60.0708 11.8511C59.8022 12.8927 59.0332 15.4684 57.7637 19.5781H62.4146ZM74.9756 27.2441C73.3724 27.2441 72.111 26.6216 71.1914 25.3765C70.2799 24.1313 69.8242 22.4061 69.8242 20.2007C69.8242 17.9627 70.2881 16.2212 71.2158 14.9761C72.1517 13.7228 73.4375 13.0962 75.0732 13.0962C76.7904 13.0962 78.1006 13.7635 79.0039 15.0981H79.126C78.9388 14.0809 78.8452 13.1735 78.8452 12.376V8.00586H82.5806V27H79.7241L79.0039 25.23H78.8452C77.9989 26.5728 76.709 27.2441 74.9756 27.2441ZM76.2817 24.2778C77.2339 24.2778 77.9297 24.0011 78.3691 23.4478C78.8167 22.8944 79.0609 21.9544 79.1016 20.6279V20.2251C79.1016 18.7603 78.8737 17.7104 78.418 17.0757C77.9704 16.4409 77.238 16.1235 76.2207 16.1235C75.3906 16.1235 74.7437 16.4775 74.2798 17.1855C73.8241 17.8854 73.5962 18.9067 73.5962 20.2495C73.5962 21.5923 73.8281 22.6014 74.292 23.2769C74.7559 23.9442 75.4191 24.2778 76.2817 24.2778ZM89.7217 27L84.5215 13.3525H88.4155L91.0522 21.1284C91.3452 22.1131 91.5283 23.0449 91.6016 23.9238H91.6748C91.7155 23.1426 91.8986 22.2108 92.2241 21.1284L94.8486 13.3525H98.7427L93.5425 27H89.7217ZM100.549 9.82471C100.549 8.61214 101.225 8.00586 102.576 8.00586C103.927 8.00586 104.602 8.61214 104.602 9.82471C104.602 10.4025 104.431 10.8542 104.089 11.1797C103.756 11.4971 103.251 11.6558 102.576 11.6558C101.225 11.6558 100.549 11.0454 100.549 9.82471ZM104.431 27H100.708V13.3525H104.431V27ZM117.871 22.9473C117.871 24.347 117.383 25.4131 116.406 26.1455C115.438 26.8779 113.985 27.2441 112.048 27.2441C111.056 27.2441 110.209 27.175 109.509 27.0366C108.809 26.9064 108.154 26.7111 107.544 26.4507V23.3745C108.236 23.7 109.013 23.9727 109.875 24.1924C110.746 24.4121 111.511 24.522 112.17 24.522C113.521 24.522 114.197 24.1313 114.197 23.3501C114.197 23.0571 114.107 22.8211 113.928 22.6421C113.749 22.4549 113.44 22.2474 113 22.0195C112.561 21.7835 111.975 21.5109 111.243 21.2017C110.193 20.7622 109.42 20.3553 108.923 19.981C108.435 19.6066 108.077 19.1794 107.849 18.6992C107.629 18.2109 107.52 17.6128 107.52 16.9048C107.52 15.6922 107.987 14.7563 108.923 14.0972C109.867 13.4299 111.202 13.0962 112.927 13.0962C114.571 13.0962 116.17 13.4543 117.725 14.1704L116.602 16.856C115.918 16.563 115.279 16.3229 114.685 16.1357C114.091 15.9486 113.485 15.855 112.866 15.855C111.768 15.855 111.218 16.152 111.218 16.7461C111.218 17.0798 111.393 17.3687 111.743 17.6128C112.101 17.8569 112.878 18.2191 114.075 18.6992C115.141 19.1305 115.922 19.5334 116.418 19.9077C116.915 20.2821 117.281 20.7134 117.517 21.2017C117.753 21.6899 117.871 22.2718 117.871 22.9473ZM123.743 20.1519C123.743 21.5028 123.962 22.5241 124.402 23.2158C124.849 23.9076 125.574 24.2534 126.575 24.2534C127.568 24.2534 128.28 23.9116 128.711 23.228C129.15 22.5363 129.37 21.5109 129.37 20.1519C129.37 18.8009 129.15 17.7878 128.711 17.1123C128.271 16.4368 127.551 16.0991 126.55 16.0991C125.557 16.0991 124.841 16.4368 124.402 17.1123C123.962 17.7796 123.743 18.7928 123.743 20.1519ZM133.179 20.1519C133.179 22.3735 132.593 24.111 131.421 25.3643C130.249 26.6175 128.617 27.2441 126.526 27.2441C125.216 27.2441 124.06 26.9593 123.059 26.3896C122.058 25.8118 121.289 24.9858 120.752 23.9116C120.215 22.8374 119.946 21.5841 119.946 20.1519C119.946 17.922 120.528 16.1886 121.692 14.9517C122.856 13.7147 124.491 13.0962 126.599 13.0962C127.909 13.0962 129.065 13.381 130.066 13.9507C131.067 14.5203 131.836 15.3382 132.373 16.4043C132.91 17.4704 133.179 18.7196 133.179 20.1519ZM143.872 13.0962C144.377 13.0962 144.796 13.1328 145.129 13.2061L144.849 16.6973C144.548 16.6159 144.181 16.5752 143.75 16.5752C142.562 16.5752 141.634 16.8804 140.967 17.4907C140.308 18.1011 139.978 18.9556 139.978 20.0542V27H136.255V13.3525H139.075L139.624 15.6475H139.807C140.23 14.8825 140.8 14.2681 141.516 13.8042C142.24 13.3322 143.026 13.0962 143.872 13.0962ZM145.654 13.3525H149.731L152.307 21.0308C152.527 21.6981 152.677 22.4875 152.759 23.3989H152.832C152.922 22.5607 153.097 21.7713 153.357 21.0308L155.884 13.3525H159.875L154.102 28.7456C153.573 30.1698 152.816 31.2358 151.831 31.9438C150.854 32.6519 149.711 33.0059 148.401 33.0059C147.758 33.0059 147.127 32.9367 146.509 32.7983V29.8442C146.956 29.95 147.445 30.0029 147.974 30.0029C148.633 30.0029 149.207 29.7995 149.695 29.3926C150.191 28.9938 150.578 28.3875 150.854 27.5737L151.074 26.9023L145.654 13.3525Z" fill="white"/>
</svg>
